<?xml version="1.0" standalone="no"?>
<!DOCTYPE svg PUBLIC "-//W3C//DTD SVG 20010904//EN"
 "http://www.w3.org/TR/2001/REC-SVG-20010904/DTD/svg10.dtd">
<svg version="1.0" xmlns="http://www.w3.org/2000/svg"
 width="360.000000pt" height="134.000000pt" viewBox="0 0 360.000000 134.000000"
 preserveAspectRatio="xMidYMid meet">

<g transform="translate(0.000000,134.000000) scale(0.100000,-0.100000)"
fill="#000000" stroke="none">
<path d="M595 1037 c-76 -139 -230 -416 -342 -615 -112 -200 -203 -366 -203
-368 0 -3 51 -3 112 -2 l113 3 110 197 c61 108 113 200 117 204 4 3 52 -86
107 -200 l100 -206 333 2 333 3 111 197 c61 109 113 201 117 204 3 4 51 -86
106 -200 l100 -206 333 0 333 1 113 204 c63 113 116 205 118 205 3 0 50 -92
104 -205 l99 -205 315 0 315 0 -38 82 c-21 46 -85 177 -141 293 -56 116 -121
251 -145 300 -24 50 -95 198 -159 329 l-116 240 -253 -455 c-139 -250 -272
-488 -294 -529 l-42 -75 -84 175 c-237 493 -419 866 -425 872 -4 3 -57 -84
-119 -195 -61 -111 -193 -348 -292 -526 l-181 -325 -101 210 c-56 115 -169
348 -251 519 -82 171 -152 313 -156 317 -4 3 -70 -107 -147 -245z"/>
</g>
</svg>
